<?xml version="1.0" encoding="UTF-8"?>
<svg xmlns="http://www.w3.org/2000/svg" xmlns:xlink="http://www.w3.org/1999/xlink" width="140px" height="100px" viewBox="0 0 140 100" version="1.1">
<g id="surface1">
<path style=" stroke:none;fill-rule:nonzero;fill:rgb(0.392157%,67.45098%,98.039216%);fill-opacity:1;" d="M 32.71875 30.554688 C 33.644531 30.800781 33.832031 30.476562 33.957031 29.003906 C 34.261719 25.574219 34.867188 22.238281 35.761719 19.109375 C 36.976562 14.9375 38.898438 10.347656 41.605469 7.265625 C 44.335938 4.308594 47.339844 2.144531 50.492188 0.859375 C 52.621094 0.0703125 54.804688 -0.171875 56.972656 0.140625 C 60.871094 0.730469 63.027344 2.59375 64.113281 5.003906 C 64.472656 5.804688 64.6875 6.765625 64.734375 7.773438 C 64.769531 8.980469 64.457031 10.542969 63.421875 12.074219 C 62.390625 13.617188 60.285156 15.433594 57.375 17.070312 C 54.355469 18.75 50.230469 20.53125 46.113281 22.121094 C 43.726562 23.023438 41.371094 24.160156 39.0625 25.515625 C 36.339844 27.070312 35.519531 31.609375 37.210938 33 C 39.117188 34.566406 40.894531 36.523438 42.511719 38.816406 C 45.101562 42.269531 47.472656 46.175781 49.574219 50.464844 C 52.136719 55.710938 56.332031 65.722656 57.832031 75.445312 C 59.503906 86.117188 58.460938 96.234375 54.859375 99.0625 C 51.328125 101.84375 46.621094 97.832031 43.320312 92.074219 C 40.183594 86.640625 37.984375 80.207031 35.914062 70.335938 C 34.121094 61.796875 33.402344 49.480469 33.402344 43.011719 C 33.402344 40.859375 33.402344 40.40625 33.4375 38.457031 C 33.554688 36.765625 30.832031 35.351562 27.910156 38.515625 C 24.578125 42.109375 21.324219 48.609375 19.398438 52.398438 C 18.5625 54.054688 17.421875 56.476562 16.21875 59.015625 C 14.628906 62.351562 12.878906 65.828125 11.285156 67.773438 C 8.894531 70.636719 5.03125 71.878906 2.316406 68.65625 C 0.808594 66.859375 0 63.453125 0 59.988281 C -0.0195312 57.601562 0.34375 55.25 1.0625 53.175781 C 1.988281 50.511719 3.457031 47.648438 5.824219 44.367188 C 8.949219 40.300781 12.402344 37 16.078125 34.566406 C 22.042969 30.542969 28.464844 29.28125 32.71875 30.554688 Z M 32.71875 30.554688 "/>
<path style=" stroke:none;fill-rule:nonzero;fill:rgb(0%,0%,0%);fill-opacity:1;" d="M 68.984375 60.335938 C 67 60.335938 66.261719 58.390625 66.261719 55.769531 L 66.261719 38.980469 L 64.25 38.980469 C 64.0625 38.980469 64.0625 38.449219 64.0625 38.007812 C 64.0625 37.566406 64.0625 36.988281 64.25 36.988281 L 66.261719 36.988281 L 66.261719 31.183594 C 66.261719 30.914062 66.710938 30.914062 66.972656 30.914062 C 67.234375 30.914062 67.683594 30.914062 67.683594 31.183594 L 67.683594 36.988281 L 70.800781 36.988281 C 70.960938 36.988281 70.960938 37.472656 70.960938 38.007812 C 70.960938 38.539062 70.960938 38.980469 70.800781 38.980469 L 67.683594 38.980469 L 67.683594 55.679688 C 67.683594 57.542969 68.160156 58.25 69.324219 58.25 L 70.773438 58.25 C 70.960938 58.25 71.007812 58.34375 71.007812 59.222656 C 71.007812 60.195312 70.953125 60.335938 70.773438 60.335938 Z M 68.984375 60.335938 "/>
<path style=" stroke:none;fill-rule:nonzero;fill:rgb(0%,0%,0%);fill-opacity:1;" d="M 74.402344 49.523438 L 74.402344 51.832031 C 74.402344 56.082031 75.75 58.703125 78.472656 58.703125 C 80.53125 58.703125 81.773438 57.773438 82.804688 56.835938 C 83.019531 56.664062 83.675781 58.5625 83.414062 58.828125 C 82.066406 60.117188 80.398438 60.867188 78.527344 60.867188 C 75.039062 60.867188 72.976562 57.589844 72.976562 52.003906 L 72.976562 44.691406 C 72.976562 39.292969 75.25 35.828125 78.238281 35.828125 C 81.457031 35.828125 83.65625 39.28125 83.65625 45.179688 L 83.65625 49.523438 Z M 82.21875 44.972656 C 82.21875 40.230469 80.394531 37.925781 78.230469 37.925781 C 76.144531 37.925781 74.402344 40.230469 74.402344 44.832031 L 74.402344 47.578125 L 82.222656 47.578125 L 82.222656 44.972656 Z M 82.21875 44.972656 "/>
<path style=" stroke:none;fill-rule:nonzero;fill:rgb(0%,0%,0%);fill-opacity:1;" d="M 89.5625 60.335938 C 87.605469 60.335938 86.839844 58.390625 86.839844 55.769531 L 86.839844 27.414062 C 86.839844 27.148438 87.289062 27.148438 87.550781 27.148438 C 87.8125 27.148438 88.261719 27.148438 88.261719 27.414062 L 88.261719 55.679688 C 88.261719 57.542969 88.769531 58.296875 89.929688 58.296875 L 90.640625 58.296875 C 90.828125 58.296875 90.875 58.390625 90.875 59.269531 C 90.875 60.242188 90.820312 60.335938 90.640625 60.335938 Z M 89.5625 60.335938 "/>
<path style=" stroke:none;fill-rule:nonzero;fill:rgb(0%,0%,0%);fill-opacity:1;" d="M 94.007812 49.523438 L 94.007812 51.832031 C 94.007812 56.082031 95.351562 58.703125 98.074219 58.703125 C 100.136719 58.703125 101.378906 57.773438 102.410156 56.835938 C 102.621094 56.664062 103.28125 58.5625 103.015625 58.828125 C 101.667969 60.117188 100.003906 60.867188 98.132812 60.867188 C 94.640625 60.867188 92.582031 57.589844 92.582031 52.003906 L 92.582031 44.691406 C 92.582031 39.292969 94.855469 35.828125 97.839844 35.828125 C 101.0625 35.828125 103.257812 39.28125 103.257812 45.179688 L 103.257812 49.523438 Z M 101.820312 44.972656 C 101.820312 40.230469 99.996094 37.925781 97.835938 37.925781 C 95.746094 37.925781 94.007812 40.230469 94.007812 44.832031 L 94.007812 47.578125 L 101.828125 47.578125 L 101.828125 44.972656 Z M 101.820312 44.972656 "/>
<path style=" stroke:none;fill-rule:nonzero;fill:rgb(0%,0%,0%);fill-opacity:1;" d="M 115.933594 60.519531 C 115.667969 60.519531 115.21875 60.519531 115.21875 60.253906 L 115.21875 43.984375 C 115.21875 40.046875 114.191406 38.226562 112.46875 38.226562 C 110.644531 38.226562 108.953125 40.847656 107.921875 43.371094 L 107.921875 60.253906 C 107.921875 60.519531 107.472656 60.519531 107.210938 60.519531 C 106.949219 60.519531 106.5 60.519531 106.5 60.253906 L 106.5 36.417969 C 106.5 36.152344 106.949219 36.152344 107.210938 36.152344 C 107.472656 36.152344 107.894531 36.152344 107.894531 36.417969 L 107.894531 40.71875 C 109.027344 38.019531 110.777344 35.839844 112.890625 35.839844 C 115.191406 35.839844 116.644531 38.726562 116.644531 42.929688 L 116.644531 60.253906 C 116.644531 60.519531 116.195312 60.519531 115.933594 60.519531 Z M 115.933594 60.519531 "/>
<path style=" stroke:none;fill-rule:nonzero;fill:rgb(0%,0%,0%);fill-opacity:1;" d="M 119.683594 52.238281 L 119.683594 44.484375 C 119.683594 38.898438 121.695312 35.839844 125.175781 35.839844 C 128.695312 35.839844 130.726562 38.898438 130.726562 44.484375 L 130.726562 52.238281 C 130.726562 57.773438 128.695312 60.878906 125.175781 60.878906 C 121.695312 60.867188 119.683594 57.773438 119.683594 52.238281 Z M 125.175781 38.007812 C 122.640625 38.007812 121.109375 39.828125 121.109375 44.878906 L 121.109375 51.832031 C 121.109375 56.835938 122.640625 58.738281 125.175781 58.738281 C 127.742188 58.738281 129.296875 56.917969 129.296875 51.832031 L 129.296875 44.878906 C 129.304688 39.871094 127.742188 38.007812 125.175781 38.007812 Z M 125.175781 38.007812 "/>
<path style=" stroke:none;fill-rule:nonzero;fill:rgb(0%,0%,0%);fill-opacity:1;" d="M 138.96875 38.714844 C 137.808594 38.714844 136.828125 40.488281 135.378906 44.207031 L 135.378906 60.253906 C 135.378906 60.519531 134.929688 60.519531 134.664062 60.519531 C 134.402344 60.519531 133.980469 60.519531 133.980469 60.253906 L 133.980469 36.417969 C 133.980469 36.152344 134.402344 36.152344 134.664062 36.152344 C 134.929688 36.152344 135.328125 36.152344 135.328125 36.417969 L 135.328125 41.785156 C 136.910156 37.753906 137.761719 36.246094 139.34375 36.246094 L 139.867188 36.246094 C 140.027344 36.246094 140.027344 37.089844 140.027344 37.53125 C 140.027344 37.972656 139.972656 38.726562 139.8125 38.726562 L 138.96875 38.726562 Z M 138.96875 38.714844 "/>
</g>
</svg>
